<svg xmlns="http://www.w3.org/2000/svg" width="300" height="220" viewBox="0 0 300 220">
  <defs>
    <linearGradient id="fsky" x1="0" y1="0" x2="0" y2="1">
      <stop offset="0" stop-color="#2a0a05"/>
      <stop offset="1" stop-color="#7a1e0a"/>
    </linearGradient>
    <linearGradient id="fflame" x1="0" y1="1" x2="0" y2="0">
      <stop offset="0" stop-color="#ffd24a"/>
      <stop offset="0.5" stop-color="#ff9c1a"/>
      <stop offset="1" stop-color="#ff4d1a"/>
    </linearGradient>
    <linearGradient id="fcore" x1="0" y1="1" x2="0" y2="0">
      <stop offset="0" stop-color="#fff2b0"/>
      <stop offset="1" stop-color="#ffb43a"/>
    </linearGradient>
  </defs>
  <rect width="300" height="220" fill="url(#fsky)"/>
  <!-- brasas -->
  <circle cx="66" cy="70" r="4" fill="#ff9c1a" opacity="0.8"/>
  <circle cx="240" cy="60" r="5" fill="#ffd24a" opacity="0.8"/>
  <circle cx="250" cy="120" r="3" fill="#ff6a1a" opacity="0.8"/>
  <!-- chama externa -->
  <path d="M150 30 C110 90 96 120 110 160 c8 24 30 38 40 38 s32 -14 40 -38 c14 -40 0 -70 -40 -130 Z"
        fill="url(#fflame)"/>
  <!-- chama interna -->
  <path d="M150 80 C130 116 124 138 134 162 c6 16 12 22 16 22 s10 -6 16 -22 c10 -24 4 -46 -16 -82 Z"
        fill="url(#fcore)"/>
</svg>
